#!OML:ASF F:\VICON\USERDATA\INSTALL\rory3\rory3.ASF
:FULLY-SPECIFIED
:DEGREES
321
root 5.34732 17.9283 12.2118 -147.057 -83.4623 145.872
lowerback 12.0958 1.19839 -2.21291
upperback 0.843661 1.20418 -0.583653
thorax -5.93487 0.619491 0.432713
lowerneck -21.1648 -5.52341 -11.7116
upperneck 27.3618 -6.91123 8.6637
head 13.5126 -3.24034 4.13311
rclavicle -1.17531e-014 3.77691e-015
rhumerus -43.3723 -19.0187 -74.2359
rradius 25.6961
rwrist 8.39606
rhand -13.8165 9.05938
rfingers 7.12502
rthumb 12.3061 -20.5585
lclavicle -1.17531e-014 3.77691e-015
lhumerus -28.4264 5.79939 78.0385
lradius 34.2961
lwrist -5.5059
lhand -18.7524 27.0966
lfingers 7.12502
lthumb 7.54419 56.9421
rfemur -0.350389 1.6808 17.8678
rtibia 52.9403
rfoot 27.8789 20.0792
rtoes 11.2354
lfemur -11.3466 -0.996458 -26.0418
ltibia 18.5081
lfoot -2.65394 -8.68092
ltoes 2.9226
322
root 5.21643 17.938 12.2196 -146.772 -83.4791 145.21
lowerback 12.3417 1.12245 -2.30936
upperback 0.916825 1.08379 -0.535223
thorax -5.99468 0.562058 0.555482
lowerneck -21.1685 -5.40494 -11.7741
upperneck 27.4426 -6.67547 8.52341
head 13.5131 -3.16442 4.13364
rclavicle 9.88954e-015 4.57205e-015
rhumerus -43.3878 -18.6364 -74.3481
rradius 25.5931
rwrist 9.06172
rhand -13.4059 8.97694
rfingers 7.12502
rthumb 12.7019 -20.6168
lclavicle 9.88954e-015 4.57205e-015
lhumerus -28.3783 5.82798 78.247
lradius 34.3418
lwrist -5.48856
lhand -19.3883 26.7614
lfingers 7.12502
lthumb 6.93031 56.628
rfemur -1.48787 1.36422 17.5229
rtibia 55.2111
rfoot 27.5328 19.916
rtoes 10.9045
lfemur -10.1668 -0.956695 -26.207
ltibia 17.9495
lfoot -2.88845 -8.70704
ltoes 2.87904
323
root 5.08686 17.9468 12.2261 -146.309 -83.5278 144.362
lowerback 12.6121 1.05517 -2.42553
upperback 0.992932 0.970851 -0.484011
thorax -6.06486 0.508797 0.691496
lowerneck -21.1443 -5.32742 -11.8098
upperneck 27.4799 -6.49809 8.35102
head 13.4951 -3.11495 4.10421
rclavicle 1.22501e-014 -7.55382e-015
rhumerus -43.3688 -18.3522 -74.4179
rradius 25.4759
rwrist 9.67066
rhand -13.4136 9.11375
rfingers 7.12502
rthumb 12.6945 -20.4804
lclavicle 1.22501e-014 -7.55382e-015
lhumerus -28.3397 5.91729 78.4708
lradius 34.4113
lwrist -5.65699
lhand -19.7754 26.5624
lfingers 7.12502
lthumb 6.55668 56.4409
rfemur -2.57791 1.08237 17.2543
rtibia 57.3521
rfoot 25.9194 19.9028
rtoes 9.3778
lfemur -9.03854 -1.17683 -26.3715
ltibia 17.5033
lfoot -3.08558 -8.4903
ltoes 3.29878
324
root 4.95974 17.9521 12.236 -144.69 -83.5492 142.435
lowerback 12.8341 0.976762 -2.52468
upperback 1.03613 0.841094 -0.518374
thorax -6.13992 0.446379 0.731962
lowerneck -21.0456 -5.28355 -11.789
upperneck 27.4564 -6.3789 8.12837
head 13.4396 -3.09199 4.03245
rclavicle -2.93207e-015 3.97569e-015
rhumerus -43.3777 -18.2199 -74.4208
rradius 25.4004
rwrist 10.3241
rhand -13.1635 9.27565
rfingers 7.12502
rthumb 12.9356 -20.3034
lclavicle -2.93207e-015 3.97569e-015
lhumerus -28.2718 5.90234 78.6416
lradius 34.4437
lwrist -5.81236
lhand -19.7495 26.5453
lfingers 7.12502
lthumb 6.58163 56.423
rfemur -3.76214 0.683979 16.8087
rtibia 59.3886
rfoot 23.6474 19.3239
rtoes 8.36541
lfemur -8.0557 -1.41023 -26.6814
ltibia 17.167
lfoot -3.417 -8.30168
ltoes 2.49073
325
root 4.82998 17.9539 12.2441 -143.224 -83.4787 140.804
lowerback 12.7948 0.883991 -2.68383
upperback 1.08183 0.692769 -0.564315
thorax -6.06625 0.3755 0.800935
lowerneck -20.9758 -5.17296 -11.7529
upperneck 27.4301 -6.18834 7.97975
head 13.3825 -3.02598 4.00136
rclavicle 7.03201e-015 -1.19271e-014
rhumerus -43.3116 -18.0312 -74.4779
rradius 25.3696
rwrist 11.0254
rhand -12.592 9.37535
rfingers 7.12502
rthumb 13.4865 -20.168
lclavicle 7.03201e-015 -1.19271e-014
lhumerus -28.1864 6.04132 78.74
lradius 34.3938
lwrist -5.98902
lhand -19.8172 26.4944
lfingers 7.12502
lthumb 6.51624 56.3741
rfemur -5.0635 0.195235 16.3379
rtibia 61.2922
rfoot 20.6649 19.0586
rtoes 5.86922
lfemur -7.2245 -1.55517 -27.0075
ltibia 16.8567
lfoot -3.74058 -8.10069
ltoes 1.97348
326
root 4.7007 17.9564 12.2469 -143.672 -83.4675 141.133
lowerback 12.6966 0.812623 -2.75191
upperback 1.12922 0.595383 -0.51641
thorax -5.9592 0.328396 0.908475
lowerneck -20.9953 -5.03432 -11.691
upperneck 27.508 -5.93617 7.7469
head 13.3764 -2.94165 3.94535
rclavicle -3.40419e-015 1.23246e-014
rhumerus -43.2405 -18.0607 -74.4304
rradius 25.3515
rwrist 11.707
rhand -12.2764 9.54031
rfingers 7.12502
rthumb 13.7906 -19.9826
lclavicle -3.40419e-015 1.23246e-014
lhumerus -28.123 6.27349 78.8726
lradius 34.3727
lwrist -6.28249
lhand -19.5111 26.1531
lfingers 7.12502
lthumb 6.81183 56.0235
rfemur -6.36672 -0.298626 16.1911
rtibia 63.0283
rfoot 17.2356 19.3264
rtoes 1.53215
lfemur -6.44495 -1.66179 -27.0772
ltibia 16.5323
lfoot -3.98998 -7.82746
ltoes 2.19896
327
root 4.57227 17.9664 12.2477 -145.626 -83.5803 143.046
lowerback 12.5254 0.718476 -2.57878
upperback 1.18057 0.506665 -0.442407
thorax -5.80516 0.279668 0.905942
lowerneck -21.0891 -4.9105 -11.6948
upperneck 27.6617 -5.73999 7.69785
head 13.434 -2.86545 3.96611
rclavicle -8.52289e-015 1.43125e-014
rhumerus -43.1276 -17.9415 -74.5854
rradius 25.451
rwrist 11.926
rhand -12.1488 9.60132
rfingers 7.12502
rthumb 13.9136 -19.9132
lclavicle -8.52289e-015 1.43125e-014
lhumerus -28.0535 6.37421 78.9702
lradius 34.4746
lwrist -6.38599
lhand -19.2978 26.1125
lfingers 7.12502
lthumb 7.01772 55.9762
rfemur -7.77707 -0.593983 16.3161
rtibia 64.5828
rfoot 14.6969 18.8467
rtoes 1.45377
lfemur -5.77239 -1.69345 -26.8817
ltibia 16.2412
lfoot -4.17735 -7.70179
ltoes 2.84081
